<svg width="360" height="132" viewBox="0 0 360 132" fill="none" xmlns="http://www.w3.org/2000/svg">
<path d="M23.5682 27.6591L25.9545 35.8636H26.0455L28.4318 27.6591H32L28.1591 39.2955H23.8409L20 27.6591H23.5682Z" fill="white"/>
<path d="M33.1207 39.2955V27.6591H41.5071V30.2045H36.2798V32.2045H41.0753V34.75H36.2798V36.75H41.4844V39.2955H33.1207ZM35.5526 26.6364C35.1662 26.6364 34.8385 26.5076 34.5696 26.25C34.3007 25.9924 34.1662 25.6818 34.1662 25.3182C34.1662 24.9545 34.3007 24.6439 34.5696 24.3864C34.8385 24.1288 35.1662 24 35.5526 24C35.9276 24 36.2476 24.1288 36.5128 24.3864C36.7817 24.6439 36.9162 24.9545 36.9162 25.3182C36.9162 25.6818 36.7817 25.9924 36.5128 26.25C36.2476 26.5076 35.9276 26.6364 35.5526 26.6364ZM39.1662 26.6364C38.7798 26.6364 38.4522 26.5076 38.1832 26.25C37.9143 25.9924 37.7798 25.6818 37.7798 25.3182C37.7798 24.9545 37.9143 24.6439 38.1832 24.3864C38.4522 24.1288 38.7798 24 39.1662 24C39.5412 24 39.8613 24.1288 40.1264 24.3864C40.3954 24.6439 40.5298 24.9545 40.5298 25.3182C40.5298 25.6818 40.3954 25.9924 40.1264 26.25C39.8613 26.5076 39.5412 26.6364 39.1662 26.6364Z" fill="white"/>
<path d="M43.0739 39.2955V27.6591H48.0966C48.9602 27.6591 49.7159 27.8163 50.3636 28.1307C51.0114 28.4451 51.5152 28.8977 51.875 29.4886C52.2348 30.0795 52.4148 30.7879 52.4148 31.6136C52.4148 32.447 52.2292 33.1496 51.858 33.7216C51.4905 34.2936 50.9735 34.7254 50.3068 35.017C49.6439 35.3087 48.8693 35.4545 47.983 35.4545H44.983V33H47.3466C47.7178 33 48.0341 32.9545 48.2955 32.8636C48.5606 32.7689 48.7633 32.6193 48.9034 32.4148C49.0473 32.2102 49.1193 31.9432 49.1193 31.6136C49.1193 31.2803 49.0473 31.0095 48.9034 30.8011C48.7633 30.589 48.5606 30.4337 48.2955 30.3352C48.0341 30.233 47.7178 30.1818 47.3466 30.1818H46.233V39.2955H43.0739ZM49.892 33.9545L52.8011 39.2955H49.3693L46.5284 33.9545H49.892Z" fill="white"/>
<path d="M60.0341 31.2955C60.0038 30.9167 59.8617 30.6212 59.608 30.4091C59.358 30.197 58.9773 30.0909 58.4659 30.0909C58.1402 30.0909 57.8731 30.1307 57.6648 30.2102C57.4602 30.286 57.3087 30.3902 57.2102 30.5227C57.1117 30.6553 57.0606 30.8068 57.0568 30.9773C57.0492 31.1174 57.0739 31.2443 57.1307 31.358C57.1913 31.4678 57.286 31.5682 57.4148 31.6591C57.5436 31.7462 57.7083 31.8258 57.9091 31.8977C58.1098 31.9697 58.3485 32.0341 58.625 32.0909L59.5795 32.2955C60.2235 32.4318 60.7746 32.6117 61.233 32.8352C61.6913 33.0587 62.0663 33.322 62.358 33.625C62.6496 33.9242 62.8636 34.2614 63 34.6364C63.1402 35.0114 63.2121 35.4205 63.2159 35.8636C63.2121 36.6288 63.0208 37.2765 62.642 37.8068C62.2633 38.3371 61.7216 38.7405 61.017 39.017C60.3163 39.2936 59.4735 39.4318 58.4886 39.4318C57.4773 39.4318 56.5947 39.2822 55.8409 38.983C55.0909 38.6837 54.5076 38.2235 54.0909 37.6023C53.678 36.9773 53.4697 36.178 53.4659 35.2045H56.4659C56.4848 35.5606 56.5739 35.8598 56.733 36.1023C56.892 36.3447 57.1155 36.5284 57.4034 36.6534C57.6951 36.7784 58.0417 36.8409 58.4432 36.8409C58.7803 36.8409 59.0625 36.7992 59.2898 36.7159C59.517 36.6326 59.6894 36.517 59.8068 36.3693C59.9242 36.2216 59.9848 36.053 59.9886 35.8636C59.9848 35.6856 59.9261 35.5303 59.8125 35.3977C59.7027 35.2614 59.5208 35.1402 59.267 35.0341C59.0133 34.9242 58.6705 34.822 58.2386 34.7273L57.0795 34.4773C56.0492 34.2538 55.2367 33.8807 54.642 33.358C54.0511 32.8314 53.7576 32.1136 53.7614 31.2045C53.7576 30.4659 53.9545 29.8201 54.3523 29.267C54.7538 28.7102 55.3087 28.2765 56.017 27.9659C56.7292 27.6553 57.5455 27.5 58.4659 27.5C59.4053 27.5 60.2178 27.6572 60.9034 27.9716C61.589 28.286 62.1174 28.7292 62.4886 29.3011C62.8636 29.8693 63.053 30.5341 63.0568 31.2955H60.0341Z" fill="white"/>
<path d="M64.0994 30.2045V27.6591H74.2131V30.2045H70.7131V39.2955H67.5994V30.2045H64.0994Z" fill="white"/>
<path d="M75.402 39.2955V27.6591H78.5611V32.3636H78.7202L82.2202 27.6591H85.902L81.9702 32.8409L85.9929 39.2955H82.2202L79.6065 34.9318L78.5611 36.2955V39.2955H75.402Z" fill="white"/>
<path d="M89.8622 39.2955H86.4531L90.294 27.6591H94.6122L98.4531 39.2955H95.044L92.4986 30.8636H92.4077L89.8622 39.2955ZM89.2259 34.7045H95.6349V37.0682H89.2259V34.7045Z" fill="white"/>
<path d="M274.885 27.3636V28.6136H269.271V39H267.862V27.3636H274.885ZM276.111 39V37.75H276.429C276.69 37.75 276.908 37.6989 277.082 37.5966C277.257 37.4905 277.397 37.3068 277.503 37.0455C277.613 36.7803 277.696 36.4129 277.753 35.9432C277.813 35.4697 277.857 34.8674 277.884 34.1364L278.043 30.2727H283.861V39H282.52V31.5227H279.315L279.179 34.6364C279.149 35.3523 279.084 35.983 278.986 36.5284C278.891 37.0701 278.745 37.5246 278.548 37.892C278.355 38.2595 278.098 38.536 277.776 38.7216C277.454 38.9072 277.05 39 276.565 39H276.111ZM288.889 39.2045C288.336 39.2045 287.834 39.1004 287.384 38.892C286.933 38.6799 286.575 38.375 286.31 37.9773C286.045 37.5758 285.912 37.0909 285.912 36.5227C285.912 36.0227 286.01 35.6174 286.207 35.3068C286.404 34.9924 286.668 34.7462 286.997 34.5682C287.327 34.3902 287.69 34.2576 288.088 34.1705C288.49 34.0795 288.893 34.0076 289.298 33.9545C289.829 33.8864 290.259 33.8352 290.588 33.8011C290.921 33.7633 291.164 33.7008 291.315 33.6136C291.471 33.5265 291.548 33.375 291.548 33.1591V33.1136C291.548 32.553 291.395 32.1174 291.088 31.8068C290.785 31.4962 290.325 31.3409 289.707 31.3409C289.067 31.3409 288.565 31.4811 288.202 31.7614C287.838 32.0417 287.582 32.3409 287.435 32.6591L286.162 32.2045C286.389 31.6742 286.692 31.2614 287.071 30.9659C287.454 30.6667 287.87 30.4583 288.321 30.3409C288.776 30.2197 289.223 30.1591 289.662 30.1591C289.942 30.1591 290.264 30.1932 290.628 30.2614C290.995 30.3258 291.349 30.4602 291.69 30.6648C292.035 30.8693 292.321 31.178 292.548 31.5909C292.776 32.0038 292.889 32.5568 292.889 33.25V39H291.548V37.8182H291.48C291.389 38.0076 291.238 38.2102 291.026 38.4261C290.813 38.642 290.531 38.8258 290.179 38.9773C289.827 39.1288 289.397 39.2045 288.889 39.2045ZM289.094 38C289.624 38 290.071 37.8958 290.435 37.6875C290.802 37.4792 291.079 37.2102 291.264 36.8807C291.454 36.5511 291.548 36.2045 291.548 35.8409V34.6136C291.491 34.6818 291.366 34.7443 291.173 34.8011C290.984 34.8542 290.764 34.9015 290.514 34.9432C290.268 34.9811 290.027 35.0152 289.793 35.0455C289.562 35.072 289.374 35.0947 289.23 35.1136C288.882 35.1591 288.556 35.233 288.253 35.3352C287.954 35.4337 287.711 35.5833 287.526 35.7841C287.344 35.9811 287.253 36.25 287.253 36.5909C287.253 37.0568 287.425 37.4091 287.77 37.6477C288.118 37.8826 288.56 38 289.094 38ZM295.337 39V30.2727H298.905C299.844 30.2727 300.59 30.4848 301.143 30.9091C301.696 31.3333 301.973 31.8939 301.973 32.5909C301.973 33.1212 301.816 33.5322 301.501 33.8239C301.187 34.1117 300.784 34.3068 300.291 34.4091C300.613 34.4545 300.926 34.5682 301.229 34.75C301.536 34.9318 301.789 35.1818 301.99 35.5C302.191 35.8144 302.291 36.2008 302.291 36.6591C302.291 37.1061 302.178 37.5057 301.95 37.858C301.723 38.2102 301.397 38.4886 300.973 38.6932C300.549 38.8977 300.041 39 299.45 39H295.337ZM296.609 37.7727H299.45C299.912 37.7727 300.274 37.6629 300.536 37.4432C300.797 37.2235 300.928 36.9242 300.928 36.5455C300.928 36.0947 300.797 35.7405 300.536 35.483C300.274 35.2216 299.912 35.0909 299.45 35.0909H296.609V37.7727ZM296.609 33.9318H298.905C299.265 33.9318 299.573 33.8826 299.831 33.7841C300.089 33.6818 300.286 33.5379 300.422 33.3523C300.562 33.1629 300.632 32.9394 300.632 32.6818C300.632 32.3144 300.479 32.0265 300.172 31.8182C299.865 31.6061 299.443 31.5 298.905 31.5H296.609V33.9318ZM310.162 34.0227V35.2727H305.344V34.0227H310.162ZM305.662 30.2727V39H304.321V30.2727H305.662ZM311.185 30.2727V39H309.844V30.2727H311.185ZM316.202 39.2045C315.649 39.2045 315.147 39.1004 314.696 38.892C314.245 38.6799 313.887 38.375 313.622 37.9773C313.357 37.5758 313.224 37.0909 313.224 36.5227C313.224 36.0227 313.323 35.6174 313.52 35.3068C313.717 34.9924 313.98 34.7462 314.31 34.5682C314.639 34.3902 315.003 34.2576 315.401 34.1705C315.802 34.0795 316.205 34.0076 316.611 33.9545C317.141 33.8864 317.571 33.8352 317.901 33.8011C318.234 33.7633 318.476 33.7008 318.628 33.6136C318.783 33.5265 318.861 33.375 318.861 33.1591V33.1136C318.861 32.553 318.707 32.1174 318.401 31.8068C318.098 31.4962 317.637 31.3409 317.02 31.3409C316.38 31.3409 315.878 31.4811 315.514 31.7614C315.151 32.0417 314.895 32.3409 314.747 32.6591L313.474 32.2045C313.702 31.6742 314.005 31.2614 314.384 30.9659C314.766 30.6667 315.183 30.4583 315.634 30.3409C316.088 30.2197 316.535 30.1591 316.974 30.1591C317.255 30.1591 317.577 30.1932 317.94 30.2614C318.308 30.3258 318.662 30.4602 319.003 30.6648C319.348 30.8693 319.634 31.178 319.861 31.5909C320.088 32.0038 320.202 32.5568 320.202 33.25V39H318.861V37.8182H318.793C318.702 38.0076 318.55 38.2102 318.338 38.4261C318.126 38.642 317.844 38.8258 317.491 38.9773C317.139 39.1288 316.709 39.2045 316.202 39.2045ZM316.406 38C316.937 38 317.384 37.8958 317.747 37.6875C318.115 37.4792 318.391 37.2102 318.577 36.8807C318.766 36.5511 318.861 36.2045 318.861 35.8409V34.6136C318.804 34.6818 318.679 34.7443 318.486 34.8011C318.296 34.8542 318.077 34.9015 317.827 34.9432C317.58 34.9811 317.34 35.0152 317.105 35.0455C316.874 35.072 316.687 35.0947 316.543 35.1136C316.194 35.1591 315.868 35.233 315.565 35.3352C315.266 35.4337 315.024 35.5833 314.838 35.7841C314.656 35.9811 314.565 36.25 314.565 36.5909C314.565 37.0568 314.738 37.4091 315.082 37.6477C315.431 37.8826 315.872 38 316.406 38ZM327.899 39V31.5H325.581C325.058 31.5 324.647 31.6212 324.348 31.8636C324.049 32.1061 323.899 32.4394 323.899 32.8636C323.899 33.2803 324.034 33.608 324.303 33.8466C324.575 34.0852 324.948 34.2045 325.422 34.2045H328.24V35.4545H325.422C324.831 35.4545 324.321 35.3504 323.893 35.142C323.465 34.9337 323.136 34.6364 322.905 34.25C322.674 33.8598 322.558 33.3977 322.558 32.8636C322.558 32.3258 322.679 31.8636 322.922 31.4773C323.164 31.0909 323.511 30.7936 323.962 30.5852C324.416 30.3769 324.956 30.2727 325.581 30.2727H329.172V39H327.899ZM322.081 39L324.558 34.6591H326.013L323.536 39H322.081Z" fill="#F5F5F5"/>
<path d="M277.68 65.1818C277.68 66.4091 277.459 67.4697 277.016 68.3636C276.572 69.2576 275.964 69.947 275.192 70.4318C274.419 70.9167 273.536 71.1591 272.544 71.1591C271.552 71.1591 270.669 70.9167 269.896 70.4318C269.124 69.947 268.516 69.2576 268.072 68.3636C267.629 67.4697 267.408 66.4091 267.408 65.1818C267.408 63.9545 267.629 62.8939 268.072 62C268.516 61.1061 269.124 60.4167 269.896 59.9318C270.669 59.447 271.552 59.2045 272.544 59.2045C273.536 59.2045 274.419 59.447 275.192 59.9318C275.964 60.4167 276.572 61.1061 277.016 62C277.459 62.8939 277.68 63.9545 277.68 65.1818ZM276.317 65.1818C276.317 64.1742 276.148 63.3239 275.811 62.6307C275.478 61.9375 275.025 61.4129 274.453 61.0568C273.885 60.7008 273.249 60.5227 272.544 60.5227C271.839 60.5227 271.201 60.7008 270.629 61.0568C270.061 61.4129 269.608 61.9375 269.271 62.6307C268.938 63.3239 268.771 64.1742 268.771 65.1818C268.771 66.1894 268.938 67.0398 269.271 67.733C269.608 68.4261 270.061 68.9508 270.629 69.3068C271.201 69.6629 271.839 69.8409 272.544 69.8409C273.249 69.8409 273.885 69.6629 274.453 69.3068C275.025 68.9508 275.478 68.4261 275.811 67.733C276.148 67.0398 276.317 66.1894 276.317 65.1818ZM290.209 66.0227V67.2727H285.391V66.0227H290.209ZM285.709 62.2727V71H284.368V62.2727H285.709ZM291.232 62.2727V71H289.891V62.2727H291.232ZM296.249 71.2045C295.696 71.2045 295.194 71.1004 294.743 70.892C294.292 70.6799 293.934 70.375 293.669 69.9773C293.404 69.5758 293.271 69.0909 293.271 68.5227C293.271 68.0227 293.37 67.6174 293.567 67.3068C293.764 66.9924 294.027 66.7462 294.357 66.5682C294.686 66.3902 295.05 66.2576 295.447 66.1705C295.849 66.0795 296.252 66.0076 296.658 65.9545C297.188 65.8864 297.618 65.8352 297.947 65.8011C298.281 65.7633 298.523 65.7008 298.675 65.6136C298.83 65.5265 298.908 65.375 298.908 65.1591V65.1136C298.908 64.553 298.754 64.1174 298.447 63.8068C298.144 63.4962 297.684 63.3409 297.067 63.3409C296.427 63.3409 295.925 63.4811 295.561 63.7614C295.197 64.0417 294.942 64.3409 294.794 64.6591L293.521 64.2045C293.749 63.6742 294.052 63.2614 294.43 62.9659C294.813 62.6667 295.23 62.4583 295.68 62.3409C296.135 62.2197 296.582 62.1591 297.021 62.1591C297.302 62.1591 297.624 62.1932 297.987 62.2614C298.355 62.3258 298.709 62.4602 299.05 62.6648C299.394 62.8693 299.68 63.178 299.908 63.5909C300.135 64.0038 300.249 64.5568 300.249 65.25V71H298.908V69.8182H298.839C298.749 70.0076 298.597 70.2102 298.385 70.4261C298.173 70.642 297.891 70.8258 297.538 70.9773C297.186 71.1288 296.756 71.2045 296.249 71.2045ZM296.453 70C296.983 70 297.43 69.8958 297.794 69.6875C298.161 69.4792 298.438 69.2102 298.624 68.8807C298.813 68.5511 298.908 68.2045 298.908 67.8409V66.6136C298.851 66.6818 298.726 66.7443 298.533 66.8011C298.343 66.8542 298.124 66.9015 297.874 66.9432C297.627 66.9811 297.387 67.0152 297.152 67.0455C296.921 67.072 296.733 67.0947 296.589 67.1136C296.241 67.1591 295.915 67.233 295.612 67.3352C295.313 67.4337 295.071 67.5833 294.885 67.7841C294.703 67.9811 294.612 68.25 294.612 68.5909C294.612 69.0568 294.785 69.4091 295.129 69.6477C295.478 69.8826 295.919 70 296.453 70ZM306.241 71.1818C305.423 71.1818 304.719 70.9886 304.128 70.6023C303.537 70.2159 303.082 69.6837 302.764 69.0057C302.446 68.3277 302.287 67.553 302.287 66.6818C302.287 65.7955 302.45 65.0133 302.776 64.3352C303.105 63.6534 303.563 63.1212 304.151 62.7386C304.741 62.3523 305.431 62.1591 306.219 62.1591C306.832 62.1591 307.385 62.2727 307.878 62.5C308.37 62.7273 308.774 63.0455 309.088 63.4545C309.402 63.8636 309.598 64.3409 309.673 64.8864H308.332C308.23 64.4886 308.003 64.1364 307.651 63.8295C307.302 63.5189 306.832 63.3636 306.241 63.3636C305.719 63.3636 305.26 63.5 304.866 63.7727C304.476 64.0417 304.171 64.4223 303.952 64.9148C303.736 65.4034 303.628 65.9773 303.628 66.6364C303.628 67.3106 303.734 67.8977 303.946 68.3977C304.162 68.8977 304.465 69.286 304.855 69.5625C305.249 69.839 305.711 69.9773 306.241 69.9773C306.59 69.9773 306.906 69.9167 307.19 69.7955C307.474 69.6742 307.715 69.5 307.912 69.2727C308.109 69.0455 308.249 68.7727 308.332 68.4545H309.673C309.598 68.9697 309.41 69.4337 309.111 69.8466C308.815 70.2557 308.423 70.5814 307.935 70.8239C307.45 71.0625 306.885 71.1818 306.241 71.1818Z" fill="#F5F5F5"/>
<path d="M266.453 74.1818H310.401V75.2727H266.453V74.1818Z" fill="#F5F5F5"/>
<path d="M274.703 103L270.703 97.6591H269.271V103H267.862V91.3636H269.271V96.4091H269.885L274.544 91.3636H276.226L271.521 96.4773L276.385 103H274.703ZM280.929 103.182C280.141 103.182 279.45 102.994 278.855 102.619C278.264 102.244 277.802 101.72 277.469 101.045C277.139 100.371 276.974 99.5833 276.974 98.6818C276.974 97.7727 277.139 96.9792 277.469 96.3011C277.802 95.6231 278.264 95.0966 278.855 94.7216C279.45 94.3466 280.141 94.1591 280.929 94.1591C281.717 94.1591 282.406 94.3466 282.997 94.7216C283.592 95.0966 284.054 95.6231 284.384 96.3011C284.717 96.9792 284.884 97.7727 284.884 98.6818C284.884 99.5833 284.717 100.371 284.384 101.045C284.054 101.72 283.592 102.244 282.997 102.619C282.406 102.994 281.717 103.182 280.929 103.182ZM280.929 101.977C281.527 101.977 282.02 101.824 282.406 101.517C282.793 101.21 283.079 100.807 283.264 100.307C283.45 99.8068 283.543 99.2652 283.543 98.6818C283.543 98.0985 283.45 97.5549 283.264 97.0511C283.079 96.5473 282.793 96.1402 282.406 95.8295C282.02 95.5189 281.527 95.3636 280.929 95.3636C280.33 95.3636 279.838 95.5189 279.452 95.8295C279.065 96.1402 278.779 96.5473 278.594 97.0511C278.408 97.5549 278.315 98.0985 278.315 98.6818C278.315 99.2652 278.408 99.8068 278.594 100.307C278.779 100.807 279.065 101.21 279.452 101.517C279.838 101.824 280.33 101.977 280.929 101.977ZM292.771 98.0227V99.2727H287.953V98.0227H292.771ZM288.271 94.2727V103H286.93V94.2727H288.271ZM293.794 94.2727V103H292.453V94.2727H293.794ZM295.055 95.5227V94.2727H302.146V95.5227H299.283V103H297.942V95.5227H295.055ZM306.217 103.205C305.664 103.205 305.162 103.1 304.712 102.892C304.261 102.68 303.903 102.375 303.638 101.977C303.373 101.576 303.24 101.091 303.24 100.523C303.24 100.023 303.339 99.6174 303.536 99.3068C303.732 98.9924 303.996 98.7462 304.325 98.5682C304.655 98.3902 305.018 98.2576 305.416 98.1705C305.818 98.0795 306.221 98.0076 306.626 97.9545C307.157 97.8864 307.587 97.8352 307.916 97.8011C308.25 97.7633 308.492 97.7008 308.643 97.6136C308.799 97.5265 308.876 97.375 308.876 97.1591V97.1136C308.876 96.553 308.723 96.1174 308.416 95.8068C308.113 95.4962 307.653 95.3409 307.036 95.3409C306.395 95.3409 305.893 95.4811 305.53 95.7614C305.166 96.0417 304.911 96.3409 304.763 96.6591L303.49 96.2045C303.717 95.6742 304.02 95.2614 304.399 94.9659C304.782 94.6667 305.198 94.4583 305.649 94.3409C306.104 94.2197 306.551 94.1591 306.99 94.1591C307.27 94.1591 307.592 94.1932 307.956 94.2614C308.323 94.3258 308.678 94.4602 309.018 94.6648C309.363 94.8693 309.649 95.178 309.876 95.5909C310.104 96.0038 310.217 96.5568 310.217 97.25V103H308.876V101.818H308.808C308.717 102.008 308.566 102.21 308.354 102.426C308.142 102.642 307.859 102.826 307.507 102.977C307.155 103.129 306.725 103.205 306.217 103.205ZM306.422 102C306.952 102 307.399 101.896 307.763 101.688C308.13 101.479 308.407 101.21 308.592 100.881C308.782 100.551 308.876 100.205 308.876 99.8409V98.6136C308.82 98.6818 308.695 98.7443 308.501 98.8011C308.312 98.8542 308.092 98.9015 307.842 98.9432C307.596 98.9811 307.356 99.0152 307.121 99.0455C306.89 99.072 306.702 99.0947 306.558 99.1136C306.21 99.1591 305.884 99.233 305.581 99.3352C305.282 99.4337 305.039 99.5833 304.854 99.7841C304.672 99.9811 304.581 100.25 304.581 100.591C304.581 101.057 304.753 101.409 305.098 101.648C305.446 101.883 305.888 102 306.422 102ZM312.665 103V94.2727H314.006V98.0682H314.892L318.028 94.2727H319.756L316.233 98.4773L319.801 103H318.074L315.21 99.3182H314.006V103H312.665ZM320.759 95.5227V94.2727H327.849V95.5227H324.986V103H323.645V95.5227H320.759ZM330.964 97.4318H333.464C334.487 97.4318 335.269 97.6913 335.811 98.2102C336.353 98.7292 336.624 99.3864 336.624 100.182C336.624 100.705 336.502 101.18 336.26 101.608C336.018 102.032 335.661 102.371 335.192 102.625C334.722 102.875 334.146 103 333.464 103H329.805V94.2727H331.146V101.75H333.464C333.995 101.75 334.43 101.61 334.771 101.33C335.112 101.049 335.283 100.689 335.283 100.25C335.283 99.7879 335.112 99.411 334.771 99.1193C334.43 98.8277 333.995 98.6818 333.464 98.6818H330.964V97.4318ZM338.01 103V94.2727H339.351V103H338.01Z" fill="#F5F5F5"/>
<path d="M266.453 106.182H340.578V107.273H266.453V106.182Z" fill="#F5F5F5"/>
</svg>
